<svg width="158" height="35" viewBox="0 0 158 35" fill="none" xmlns="http://www.w3.org/2000/svg">
<g clip-path="url(#clip0_39591_396)">
<g filter="url(#filter0_d_39591_396)">
<path d="M51.1809 4.3247C51.1809 5.40254 50.8392 6.26225 50.1559 6.89099C49.3906 7.64805 48.3792 8.03299 47.1492 8.03299C45.9603 8.03299 44.9626 7.64805 44.1289 6.87816C43.2953 6.10827 42.8853 5.14591 42.8853 4.01674C42.8853 2.87474 43.2953 1.92521 44.1289 1.15532C44.9626 0.385433 45.9603 0.000488281 47.1492 0.000488281C47.7369 0.000488281 48.2972 0.10314 48.8302 0.321275C49.3632 0.53941 49.7869 0.821703 50.1149 1.18098L49.3906 1.86105C48.8439 1.25797 48.1059 0.950018 47.1492 0.950018C46.2883 0.950018 45.5366 1.23231 44.9079 1.80973C44.2793 2.37431 43.9649 3.11854 43.9649 4.02957C43.9649 4.94061 44.2793 5.68483 44.9079 6.24942C45.5366 6.814 46.2883 7.10913 47.1492 7.10913C48.0649 7.10913 48.8302 6.82684 49.4452 6.24942C49.8416 5.87731 50.0739 5.35122 50.1286 4.68398H47.1492V3.74728H51.1262C51.1536 3.95258 51.1809 4.14506 51.1809 4.3247Z" fill="white" stroke="white" stroke-width="0.256629" stroke-miterlimit="10"/>
<path d="M57.481 1.11701H53.7499V3.55499H57.112V4.47885H53.7499V6.91683H57.481V7.86636H52.6976V0.16748H57.481V1.11701V1.11701Z" fill="white" stroke="white" stroke-width="0.256629" stroke-miterlimit="10"/>
<path d="M61.9224 7.86636H60.87V1.11701H58.574V0.16748H64.2047V1.11701H61.9087V7.86636H61.9224Z" fill="white" stroke="white" stroke-width="0.256629" stroke-miterlimit="10"/>
<path d="M68.2908 7.86636V0.16748H69.343V7.86636H68.2908Z" fill="white" stroke="white" stroke-width="0.256629" stroke-miterlimit="10"/>
<path d="M74.0181 7.86636H72.9657V1.11701H70.6697V0.16748H76.3004V1.11701H74.0044V7.86636H74.0181Z" fill="white" stroke="white" stroke-width="0.256629" stroke-miterlimit="10"/>
<path d="M86.9734 6.86484C86.167 7.64756 85.1694 8.03251 83.9667 8.03251C82.7641 8.03251 81.7664 7.64756 80.9601 6.86484C80.1538 6.08212 79.7574 5.13259 79.7574 4.01625C79.7574 2.89991 80.1538 1.93755 80.9601 1.16767C81.7664 0.384945 82.7641 0 83.9667 0C85.1557 0 86.1534 0.384945 86.9734 1.16767C87.7797 1.95039 88.1897 2.89991 88.1897 4.01625C88.176 5.14542 87.7797 6.09495 86.9734 6.86484ZM81.7391 6.22327C82.3404 6.80068 83.0921 7.08298 83.9667 7.08298C84.8414 7.08298 85.593 6.80068 86.1944 6.22327C86.7957 5.64585 87.11 4.91446 87.11 4.01625C87.11 3.11805 86.8094 2.38665 86.1944 1.80924C85.593 1.23182 84.8414 0.936698 83.9667 0.936698C83.0921 0.936698 82.3404 1.21899 81.7391 1.79641C81.1378 2.38666 80.8234 3.11805 80.8234 4.01625C80.8234 4.91446 81.1378 5.64585 81.7391 6.22327Z" fill="white" stroke="white" stroke-width="0.256629" stroke-miterlimit="10"/>
<path d="M89.6663 7.86636V0.16748H90.9509L94.9415 6.15977H94.9825L94.9415 4.67132V0.16748H95.9938V7.86636H94.9005L90.7322 1.59177H90.6912L90.7322 3.08022V7.86636H89.6663Z" fill="white" stroke="white" stroke-width="0.256629" stroke-miterlimit="10"/>
<path d="M79.498 19.0928C76.2863 19.0928 73.6623 21.3896 73.6623 24.5462C73.6623 27.6899 76.2863 29.9996 79.498 29.9996C82.7096 29.9996 85.3336 27.6899 85.3336 24.5462C85.3336 21.3896 82.7096 19.0928 79.498 19.0928ZM79.498 27.8567C77.735 27.8567 76.218 26.4966 76.218 24.5462C76.218 22.583 77.735 21.2357 79.498 21.2357C81.261 21.2357 82.778 22.583 82.778 24.5462C82.778 26.4966 81.2473 27.8567 79.498 27.8567ZM66.7607 19.0928C63.549 19.0928 60.925 21.3896 60.925 24.5462C60.925 27.6899 63.549 29.9996 66.7607 29.9996C69.9723 29.9996 72.5963 27.6899 72.5963 24.5462C72.5963 21.3896 69.9723 19.0928 66.7607 19.0928ZM66.7607 27.8567C64.9977 27.8567 63.4807 26.4966 63.4807 24.5462C63.4807 22.583 64.9977 21.2357 66.7607 21.2357C68.5237 21.2357 70.0407 22.583 70.0407 24.5462C70.0407 26.4966 68.5237 27.8567 66.7607 27.8567ZM51.6181 20.7737V23.0834H57.522C57.3444 24.3794 56.8797 25.3417 56.1827 25.9961C55.3217 26.8045 53.9824 27.6899 51.6317 27.6899C47.9964 27.6899 45.1537 24.944 45.1537 21.5308C45.1537 18.1176 47.9964 15.3717 51.6317 15.3717C53.5861 15.3717 55.0211 16.0902 56.0734 17.0269L57.809 15.3973C56.333 14.0757 54.3787 13.062 51.6181 13.062C46.6434 13.062 42.4614 16.8601 42.4614 21.5436C42.4614 26.2143 46.6434 30.0252 51.6181 30.0252C54.3104 30.0252 56.333 29.204 57.9184 27.6514C59.5447 26.1245 60.0504 23.9688 60.0504 22.2365C60.0504 21.6976 60.0094 21.1972 59.9137 20.7866H51.6181V20.7737ZM113.542 22.5701C113.063 21.3511 111.587 19.0928 108.567 19.0928C105.574 19.0928 103.087 21.2998 103.087 24.5462C103.087 27.6001 105.547 29.9996 108.854 29.9996C111.519 29.9996 113.063 28.4726 113.692 27.5872L111.71 26.3426C111.054 27.2536 110.152 27.8567 108.854 27.8567C107.556 27.8567 106.626 27.2921 106.039 26.2014L113.815 23.1861L113.542 22.5701ZM105.615 24.3922C105.547 22.2878 107.351 21.21 108.649 21.21C109.66 21.21 110.521 21.6848 110.808 22.3648L105.615 24.3922ZM99.3009 29.6788H101.857V13.6394H99.3009V29.6788ZM95.1189 20.3118H95.0233C94.4493 19.6702 93.3559 19.0928 91.9619 19.0928C89.0509 19.0928 86.386 21.4923 86.386 24.5719C86.386 27.6257 89.0509 30.0124 91.9619 30.0124C93.3423 30.0124 94.4493 29.435 95.0233 28.7677H95.1053V29.5505C95.1053 31.642 93.9163 32.7583 92.0029 32.7583C90.4449 32.7583 89.4746 31.7062 89.0783 30.8208L86.8506 31.6933C87.4929 33.1433 89.1876 34.914 92.0029 34.914C94.9959 34.914 97.5243 33.2588 97.5243 29.2297V19.4264H95.1053V20.3118H95.1189ZM92.1806 27.8567C90.4176 27.8567 88.9416 26.4709 88.9416 24.5719C88.9416 22.6471 90.4176 21.2485 92.1806 21.2485C93.9163 21.2485 95.2829 22.66 95.2829 24.5719C95.2966 26.4709 93.9299 27.8567 92.1806 27.8567ZM125.513 13.6394H119.405V29.6788H121.96V23.5967H125.527C128.356 23.5967 131.13 21.6719 131.13 18.618C131.13 15.5642 128.329 13.6394 125.513 13.6394ZM125.568 21.364H121.947V15.8593H125.568C127.481 15.8593 128.561 17.3477 128.561 18.6052C128.561 19.8627 127.481 21.364 125.568 21.364ZM141.339 19.0671C139.494 19.0671 137.581 19.837 136.788 21.518L139.057 22.4033C139.535 21.518 140.437 21.2228 141.38 21.2228C142.706 21.2228 144.045 21.9671 144.059 23.2887V23.4555C143.594 23.2117 142.61 22.8396 141.394 22.8396C138.948 22.8396 136.474 24.0971 136.474 26.4452C136.474 28.5881 138.469 29.9739 140.711 29.9739C142.419 29.9739 143.376 29.2553 143.963 28.4085H144.045V29.6531H146.505V23.5068C146.519 20.6582 144.25 19.0671 141.339 19.0671ZM141.025 27.8567C140.191 27.8567 139.03 27.4589 139.03 26.4966C139.03 25.2648 140.478 24.79 141.736 24.79C142.856 24.79 143.389 25.021 144.059 25.3289C143.868 26.8045 142.501 27.8567 141.025 27.8567ZM155.484 19.4136L152.56 26.3683H152.478L149.444 19.4136H146.697L151.248 29.1399L148.651 34.5419H151.316L158.327 19.4136H155.484ZM132.524 29.6788H135.08V13.6394H132.524V29.6788Z" fill="white"/>
<path d="M0.641668 0.859352C0.245334 1.25713 0.0130005 1.87304 0.0130005 2.65576V31.039C0.0130005 31.8346 0.245334 32.4505 0.641668 32.8354L0.737336 32.9252L17.6704 17.0399V16.8474V16.6549L0.737336 0.769531L0.641668 0.859352Z" fill="url(#paint0_linear_39591_396)"/>
<path d="M23.3165 22.3393L17.6721 17.0398V16.8474V16.6549L23.3165 11.3555L23.4395 11.4196L30.1226 14.9868C32.0359 16.0005 32.0359 17.6686 30.1226 18.6951L23.4395 22.2623L23.3165 22.3393Z" fill="url(#paint1_linear_39591_396)"/>
<path d="M23.4387 22.2754L17.6713 16.8477L0.642761 32.8357C1.27142 33.4644 2.31009 33.5414 3.48542 32.9127L23.4387 22.2754Z" fill="url(#paint2_linear_39591_396)"/>
<path d="M23.4382 11.4326L3.47134 0.782482C2.29601 0.15374 1.25736 0.230728 0.628693 0.85947L17.6709 16.8475L23.4382 11.4326Z" fill="url(#paint3_linear_39591_396)"/>
<path opacity="0.2" d="M23.3145 22.147L3.47059 32.7329C2.36359 33.3232 1.36593 33.2847 0.737269 32.7458L0.641602 32.8356L0.737269 32.9254C1.3796 33.4643 2.36359 33.5028 3.47059 32.9126L23.4375 22.2625L23.3145 22.147Z" fill="black"/>
<path opacity="0.12" d="M0.640562 32.6558C0.244175 32.258 0.0118103 31.6421 0.0118103 30.8594V31.0518C0.0118103 31.8474 0.244175 32.4633 0.640562 32.8482L0.736243 32.7584L0.640562 32.6558Z" fill="black"/>
<path opacity="0.12" d="M30.122 18.5157L23.3023 22.147L23.4253 22.2625L30.1083 18.6954C31.065 18.1821 31.5433 17.5149 31.5433 16.8477C31.475 17.4507 30.9966 18.0538 30.122 18.5157Z" fill="black"/>
<path opacity="0.25" d="M3.47134 0.963116L30.1214 15.1804C30.9824 15.6423 31.4744 16.2326 31.5564 16.8485C31.5564 16.1812 31.0781 15.5012 30.1214 15.0007L3.47134 0.783476C1.558 -0.23021 0 0.616667 0 2.6697V2.86217C0 0.796308 1.57167 -0.0505692 3.47134 0.963116Z" fill="white"/>
</g>
</g>
<defs>
<filter id="filter0_d_39591_396" x="-4" y="-0.128418" width="166.327" height="43.0425" filterUnits="userSpaceOnUse" color-interpolation-filters="sRGB">
<feFlood flood-opacity="0" result="BackgroundImageFix"/>
<feColorMatrix in="SourceAlpha" type="matrix" values="0 0 0 0 0 0 0 0 0 0 0 0 0 0 0 0 0 0 127 0" result="hardAlpha"/>
<feOffset dy="4"/>
<feGaussianBlur stdDeviation="2"/>
<feComposite in2="hardAlpha" operator="out"/>
<feColorMatrix type="matrix" values="0 0 0 0 0 0 0 0 0 0 0 0 0 0 0 0 0 0 0.25 0"/>
<feBlend mode="normal" in2="BackgroundImageFix" result="effect1_dropShadow_39591_396"/>
<feBlend mode="normal" in="SourceGraphic" in2="effect1_dropShadow_39591_396" result="shape"/>
</filter>
<linearGradient id="paint0_linear_39591_396" x1="16.1665" y1="2.36038" x2="-5.3251" y2="25.2508" gradientUnits="userSpaceOnUse">
<stop stop-color="#00A0FF"/>
<stop offset="0.00657445" stop-color="#00A1FF"/>
<stop offset="0.2601" stop-color="#00BEFF"/>
<stop offset="0.5122" stop-color="#00D2FF"/>
<stop offset="0.7604" stop-color="#00DFFF"/>
<stop offset="1" stop-color="#00E3FF"/>
</linearGradient>
<linearGradient id="paint1_linear_39591_396" x1="32.6158" y1="16.8493" x2="-0.453586" y2="16.8493" gradientUnits="userSpaceOnUse">
<stop stop-color="#FFE000"/>
<stop offset="0.4087" stop-color="#FFBD00"/>
<stop offset="0.7754" stop-color="#FFA500"/>
<stop offset="1" stop-color="#FF9C00"/>
</linearGradient>
<linearGradient id="paint2_linear_39591_396" x1="20.3048" y1="19.794" x2="-8.83953" y2="50.8352" gradientUnits="userSpaceOnUse">
<stop stop-color="#FF3A44"/>
<stop offset="1" stop-color="#C31162"/>
</linearGradient>
<linearGradient id="paint3_linear_39591_396" x1="-3.65277" y1="-8.58924" x2="9.36147" y2="5.27186" gradientUnits="userSpaceOnUse">
<stop stop-color="#32A071"/>
<stop offset="0.0685" stop-color="#2DA771"/>
<stop offset="0.4762" stop-color="#15CF74"/>
<stop offset="0.8009" stop-color="#06E775"/>
<stop offset="1" stop-color="#00F076"/>
</linearGradient>
<clipPath id="clip0_39591_396">
<rect width="158" height="35" fill="white"/>
</clipPath>
</defs>
</svg>
