<svg width="134" height="73" viewBox="0 0 134 73" fill="none" xmlns="http://www.w3.org/2000/svg">
<g clip-path="url(#clip0_39611_341)">
<path d="M28.9107 19.5258C29.0246 20.0254 28.6526 21.6869 27.7948 24.5103C27.6232 25.075 26.6924 27.9901 25.0024 33.2556C23.777 37.1013 22.9565 39.8411 22.5407 41.475C22.0504 43.2761 21.5961 45.4819 21.1777 48.0925C20.6642 51.438 20.1506 54.7835 19.6371 58.129C19.3847 59.1626 19.0065 60.0559 18.5025 60.809C18.026 61.5183 17.5023 61.938 16.9314 62.0682C16.4675 62.174 16.018 62.0137 15.5829 61.5873C15.1835 61.1529 14.8577 60.3825 14.6055 59.2763C13.678 55.2082 13.0819 50.783 12.8174 46.0007C12.5804 41.1745 12.3929 36.3183 12.2548 31.4321C10.2681 36.8779 8.59093 41.9528 7.22338 46.6568C5.7976 51.5993 4.83763 55.7035 4.3435 58.9695C4.18378 60.2448 4.01999 61.5021 3.85214 62.7417C3.49831 64.812 2.87533 65.9488 1.98321 66.1522C1.31648 66.1916 0.893611 65.8188 0.714611 65.0337C0.429837 63.7848 0.665055 61.4412 1.42026 58.0031C1.72272 56.6953 2.02517 55.3875 2.32763 54.0797C3.39529 49.7069 4.95881 44.5453 7.01821 38.5949C9.17153 32.3979 10.9125 28.0968 12.2411 25.6916C12.9523 24.3657 13.647 23.6255 14.325 23.4709C15.0744 23.3 15.5386 23.6071 15.7176 24.3922C15.7908 24.7134 15.7845 25.0151 15.6987 25.2974C14.9516 28.7713 14.8418 34.0519 15.3691 41.1393C15.8145 47.0442 16.4277 51.7094 17.2088 55.1352C17.3785 54.2331 17.8022 52.2219 18.4797 49.1018C19.0571 46.5301 19.4767 44.5011 19.7384 43.0149C20.3077 40.4075 20.8155 38.1895 21.262 36.3608C21.7974 34.099 22.4154 31.7057 23.1161 29.1809C23.8525 26.648 24.5801 24.3235 25.2989 22.2076C26.0096 20.0559 26.8467 18.8703 27.8102 18.6506C28.373 18.4847 28.7398 18.7765 28.9107 19.5258Z" fill="white"/>
<path d="M37.886 27.4462C38.0812 28.3027 37.8386 29.2965 37.158 30.4277C36.505 31.5151 35.8573 32.132 35.215 32.2785C34.4656 32.4493 33.9892 32.0887 33.7858 31.1966C33.5987 30.3758 33.8276 29.4039 34.4724 28.2809C35.1173 27.1578 35.7609 26.523 36.4033 26.3766C37.1883 26.1976 37.6826 26.5541 37.886 27.4462ZM34.6671 38.7664C34.7892 39.3017 34.6833 39.9077 34.3496 40.5844C33.6465 41.946 32.8979 44.4254 32.1039 48.0225C31.3017 51.584 30.9319 53.9958 30.9944 55.2579C31.057 56.52 30.7054 57.2008 29.9397 57.3003C29.6543 57.3654 29.3597 57.2261 29.0561 56.8824C28.7525 56.5387 28.5478 56.1349 28.442 55.671C28.0352 53.8867 28.2946 51.2373 29.2201 47.7228C30.0015 44.7291 31.0103 41.9089 32.2462 39.2621C32.3758 39.0073 32.5411 38.7444 32.7421 38.4733C32.9787 38.1941 33.2577 38.0179 33.5788 37.9447C34.166 37.8858 34.5288 38.1598 34.6671 38.7664Z" fill="white"/>
<path d="M52.9949 40.2185C53.2797 41.4675 52.7449 43.4852 51.3907 46.2716C49.8047 49.5238 47.692 52.2766 45.0525 54.5302C44.4413 57.4475 43.8257 59.9341 43.2058 61.99C42.3092 64.9724 41.3828 67.2483 40.4267 68.8177C39.1952 70.8254 37.7944 72.0082 36.2242 72.3662C34.4757 72.7649 33.3451 71.8401 32.8325 69.592C32.4176 67.7721 33.0697 65.4461 34.789 62.614C36.5083 59.7819 39.012 57.0149 42.3001 54.3131C42.6758 53.3265 42.9218 52.5947 43.0383 52.1177C43.2324 51.3226 43.2685 50.6574 43.1464 50.1222C42.5566 51.1576 41.9359 51.9749 41.2841 52.5739C40.6242 53.1373 39.9553 53.4963 39.2773 53.6509C37.8499 53.9764 36.9409 53.2827 36.5504 51.5698C36.0378 49.3217 36.7282 46.0109 38.6216 41.6375C40.6446 37.0093 42.8337 34.4267 45.1889 33.8897C46.0453 33.6945 46.7844 33.8075 47.406 34.2289C48.0276 34.6502 48.428 35.2534 48.607 36.0385C48.729 36.5738 48.7537 37.0937 48.681 37.5983C48.6359 38.059 48.4741 38.584 48.1955 39.173C48.8021 39.0347 49.1063 39.1343 49.1082 39.4717C48.3731 41.5163 47.7166 43.4116 47.1387 45.1576C46.4668 47.1502 46.1784 48.849 46.2735 50.2538C47.7485 48.491 48.9688 46.5985 49.9343 44.5765C50.7232 42.9326 51.508 41.2708 52.2888 39.5912C52.6456 39.5098 52.881 39.7189 52.9949 40.2185ZM45.8122 37.8582C45.682 37.2873 45.3315 37.0669 44.7605 37.1971C43.7613 37.4249 42.4785 39.1251 40.9119 42.2978C39.2433 45.6814 38.5962 48.194 38.9705 49.8355C39.1576 50.6563 39.5723 50.9934 40.2146 50.8469C40.857 50.7005 41.499 50.1412 42.1408 49.169C42.9008 48.0572 43.6556 46.3459 44.4051 44.0353C43.7741 44.0665 43.4382 43.993 43.3975 43.8145C43.822 43.042 44.27 42.2078 44.7415 41.312C45.2405 40.3724 45.5846 39.4117 45.7737 38.4301L45.8122 37.8582ZM41.8256 57.9125C40.5767 58.1973 39.1079 59.6584 37.4193 62.2958C35.7032 64.977 34.9875 66.9421 35.2723 68.1911C35.3374 68.4765 35.5192 68.6979 35.8178 68.855C36.1164 69.0122 36.4263 69.0541 36.7475 68.9809C37.711 68.7612 38.6501 67.3646 39.5649 64.791C40.3144 62.4803 41.068 60.1875 41.8256 57.9125Z" fill="white"/>
<path d="M69.8717 36.8773C70.2053 38.3403 69.699 40.4829 68.3529 43.305C66.8496 46.4257 65.1344 48.2058 63.2074 48.6451C62.5651 48.7916 62.0346 48.6873 61.6158 48.3323C61.2245 47.9335 60.9434 47.3594 60.7726 46.6101C60.4878 45.3611 60.5483 43.7331 60.9541 41.726C61.3599 39.719 62.0074 37.6193 62.8965 35.4269C59.525 39.5743 57.4419 44.1035 56.6472 49.0147C56.3547 50.6956 55.8338 51.6215 55.0844 51.7924C54.2993 51.9714 53.797 51.5791 53.5773 50.6157C53.3901 49.7949 53.59 47.8724 54.1767 44.848C54.6715 42.4077 55.1971 40.1856 55.7538 38.1817C57.2848 32.8774 58.7689 26.6265 60.2061 19.429C60.8705 16.0866 61.738 14.2934 62.8085 14.0493C63.772 13.8296 64.3636 14.2015 64.5833 15.165C64.7297 15.8073 64.323 17.6456 63.3631 20.68C62.4389 23.7062 61.4968 26.7365 60.5369 29.7709C59.3942 33.4851 58.722 36.1347 58.5203 37.7199C59.8151 35.6603 61.1101 34.0136 62.4055 32.7797C63.4836 31.7456 64.4152 31.139 65.2002 30.96C66.0567 30.7647 66.5663 31.0239 66.729 31.7376C66.7778 31.9517 66.7618 32.2932 66.681 32.7621C65.6529 35.6619 64.8887 37.8257 64.3884 39.2537C63.4899 41.8987 63.122 43.578 63.2847 44.2917C63.3986 44.7913 63.6875 44.9882 64.1514 44.8824C64.9008 44.7115 65.5194 44.2139 66.0071 43.3894C66.0622 43.3018 66.7018 41.5793 67.9259 38.2219C68.3648 37.1833 68.8341 36.6071 69.3336 36.4932C69.6191 36.4281 69.7985 36.5561 69.8717 36.8773Z" fill="white"/>
<path d="M85.6282 22.248C85.9906 23.1789 85.3755 23.9386 83.7828 24.5269C81.0175 25.5704 79.1801 26.4023 78.2704 27.0226C77.1489 30.9948 76.3718 34.4192 75.939 37.2958C75.5708 39.6321 75.5006 41.2999 75.7284 42.2991C75.9074 43.0841 76.3002 43.4075 76.9069 43.2692C77.6205 43.1065 78.4141 42.3061 79.2875 40.8682C80.1885 39.3864 80.8387 37.7928 81.2382 36.0875C81.3772 35.3801 81.6609 34.9776 82.0891 34.88C82.6438 34.6784 83.0025 34.9345 83.1652 35.6482C83.5069 37.1469 82.9227 39.1947 81.4125 41.7914C79.9299 44.3443 78.3679 45.8079 76.7264 46.1821C75.8343 46.3856 74.9897 46.2215 74.1928 45.6899C73.3959 45.1584 72.8673 44.3216 72.6069 43.1797C72.2164 41.4669 72.3242 39.0585 72.9304 35.9546C73.3863 33.6734 73.9971 31.4131 74.7629 29.1738C74.0786 29.6301 73.5402 29.9031 73.1477 29.9926C72.3269 30.1797 71.8189 29.845 71.6236 28.9886C71.469 28.3106 71.8628 27.7328 72.8051 27.2552C73.783 26.7694 74.7787 26.2796 75.7923 25.7857C76.9175 22.4885 77.8122 20.2385 78.4765 19.0359C79.1327 17.7977 79.8176 17.0972 80.5313 16.9345C81.0503 16.741 81.3912 17.0012 81.5539 17.7149C81.6841 18.2858 81.4925 19.1742 80.979 20.3799C80.2227 22.1666 79.7919 23.2408 79.6867 23.6027C80.4943 23.1933 81.2387 22.8359 81.9198 22.5304C82.601 22.2249 83.2449 22.003 83.8515 21.8647C84.9221 21.6206 85.5143 21.7484 85.6282 22.248Z" fill="white"/>
<path d="M100.966 5.85577C101.601 8.63918 100.496 13.0956 97.6518 19.2249C95.0859 24.7652 92.204 29.4954 89.0059 33.4155C88.4336 36.1738 88.245 37.9811 88.4403 38.8376C88.5868 39.4799 88.8206 39.7644 89.1417 39.6912C89.7484 39.5529 90.494 38.7072 91.3787 37.154C92.2909 35.557 92.7994 34.1648 92.904 32.9772C93.0624 32.1903 93.3736 31.7439 93.8375 31.6381C94.0873 31.5812 94.3258 31.6394 94.553 31.8128C94.8078 31.9424 94.9759 32.1857 95.0573 32.5425C95.3502 33.8272 94.6426 35.8279 92.9346 38.5449C91.2266 41.2618 89.7839 42.7545 88.6063 43.023C87.2859 43.324 86.4264 42.6003 86.0277 40.8517C85.922 40.3878 85.8769 39.7787 85.8926 39.0243C86.2968 32.4002 87.6686 25.5743 90.0079 18.5465C92.195 12.0039 94.4371 7.51344 96.7342 5.07516C97.441 4.38843 98.0621 3.98405 98.5974 3.86201C99.1683 3.73182 99.6673 3.86207 100.094 4.25274C100.513 4.60773 100.804 5.14208 100.966 5.85577ZM98.6 7.57786C98.486 7.07828 98.2328 6.87323 97.8403 6.96273C96.9482 7.16614 95.5532 9.77414 93.6554 14.7867C91.7494 19.7636 90.6411 23.958 90.3304 27.3699C92.4684 24.8928 94.4832 21.2988 96.3748 16.588C98.2 12.08 98.9417 9.07662 98.6 7.57786Z" fill="white"/>
<path d="M106.572 11.7853C106.767 12.6417 106.525 13.6356 105.844 14.7668C105.191 15.8542 104.543 16.4711 103.901 16.6175C103.152 16.7884 102.675 16.4278 102.472 15.5357C102.285 14.7149 102.514 13.743 103.159 12.6199C103.803 11.4969 104.447 10.8621 105.089 10.7156C105.874 10.5366 106.369 10.8932 106.572 11.7853ZM103.353 23.1055C103.475 23.6407 103.369 24.2467 103.036 24.9235C102.333 26.2851 101.584 28.7644 100.79 32.3616C99.9878 35.9231 99.618 38.3349 99.6805 39.597C99.743 40.8591 99.3915 41.5399 98.6258 41.6394C98.3404 41.7045 98.0458 41.5652 97.7422 41.2214C97.4386 40.8777 97.2339 40.4739 97.1281 40.01C96.7213 38.2258 96.9807 35.5764 97.9062 32.0619C98.6876 29.0682 99.6963 26.248 100.932 23.6011C101.062 23.3464 101.227 23.0834 101.428 22.8124C101.665 22.5332 101.944 22.357 102.265 22.2837C102.852 22.2249 103.215 22.4988 103.353 23.1055Z" fill="white"/>
<path d="M118.912 0.80675C119.034 1.34202 118.847 2.00404 118.351 2.79282C117.139 4.72095 115.833 7.55276 114.432 11.2883C113.032 15.0237 111.929 18.5035 111.125 21.7276C111.955 21.0878 112.748 20.5316 113.504 20.059C114.691 19.3379 115.766 18.8675 116.73 18.6478C117.55 18.4607 118.291 18.4983 118.952 18.7606C119.648 19.0148 120.097 19.4193 120.298 19.974C120.371 20.2951 120.213 20.6692 119.822 21.0961C119.467 21.5149 119.093 21.769 118.701 21.8585C118.558 21.8911 118.067 21.7965 117.228 21.5749C116.787 21.4503 116.352 21.4368 115.924 21.5344C115.246 21.689 114.214 22.1869 112.83 23.0283C111.437 23.8339 110.429 24.6831 109.807 25.5757C111.189 25.7111 112.35 26.4411 113.29 27.7658C114.067 28.8652 114.642 30.2356 115.016 31.8771C116.619 38.907 116.432 44.6744 114.456 49.1793C112.947 52.6017 111.014 54.5815 108.659 55.1185C107.803 55.3137 106.969 55.0345 106.159 54.2807C105.322 53.5707 104.752 52.5555 104.451 51.2352C104.199 50.129 104.06 48.9407 104.033 47.6705C104.014 46.436 104.068 45.1097 104.196 43.6917C104.435 41.1219 104.978 37.6571 105.824 33.2974C106.171 31.5288 106.346 30.4004 106.347 29.9121C106.212 29.9803 106.038 30.0389 105.824 30.0877C105.253 30.2179 104.923 30.0867 104.833 29.6942C104.727 29.2303 104.938 28.5066 105.464 27.5231C105.991 26.5396 106.741 25.4676 107.715 24.307C108.657 20.8638 109.372 18.3171 109.859 16.6669C110.661 13.9312 111.52 11.2765 112.435 8.7029C113.377 6.08549 114.275 3.92884 115.127 2.23295C115.433 1.60004 115.807 1.10174 116.25 0.738038C116.684 0.33865 117.116 0.090137 117.544 -0.00749948C118.293 -0.178363 118.749 0.0930548 118.912 0.80675ZM112.705 32.8546C112.404 31.5342 111.991 30.4646 111.467 29.6457C110.942 28.8268 110.298 28.3917 109.536 28.3403C108.981 30.6817 108.319 34.5302 107.551 39.8859C106.818 45.2335 106.562 48.389 106.781 49.3525C106.96 50.1376 107.237 50.6938 107.612 51.0213C107.995 51.3844 108.365 51.5253 108.722 51.4439C110.185 51.1103 111.425 49.1384 112.441 45.5281C113.61 41.4326 113.698 37.2081 112.705 32.8546Z" fill="white"/>
<path d="M133.597 24.3183C133.881 25.5673 132.961 27.5415 130.836 30.2408C128.566 33.1236 126.324 34.8172 124.112 35.3217C123.005 35.5739 121.93 35.3873 120.887 34.7618C119.871 34.0925 119.224 33.1512 118.948 31.9379C118.598 30.4035 118.679 28.6205 119.192 26.5891C119.619 24.8399 120.223 23.3697 121.002 22.1784C122.088 20.3542 123.097 19.0167 124.029 18.166C124.953 17.2796 125.772 16.755 126.486 16.5923C127.164 16.4377 127.766 16.5257 128.291 16.8563C128.817 17.1869 129.149 17.6555 129.288 18.2621C129.548 19.404 129.255 20.9162 128.408 22.7986C127.792 24.2153 127.005 25.5397 126.047 26.7717C125.634 27.429 124.985 28.1213 124.1 28.8487C123.467 29.3683 122.756 29.8685 121.964 30.3492C122.159 31.2057 122.484 31.8073 122.939 32.1542C123.421 32.4572 124.001 32.5314 124.679 32.3768C125.785 32.1246 127.019 31.2801 128.381 29.8435C129.778 28.3986 130.931 26.7845 131.838 25.0009C132.254 24.1927 132.605 23.7561 132.891 23.691C133.247 23.6096 133.483 23.8188 133.597 24.3183ZM126.953 20.3711C126.855 19.9429 126.584 19.7419 126.14 19.7682C125.569 19.8983 124.98 20.4455 124.374 21.4095C123.898 22.1188 123.385 23.0804 122.836 24.2942C122.314 25.4643 121.943 26.4687 121.721 27.3076C122.899 27.0391 124.118 26.0478 125.379 24.3338C126.64 22.6198 127.165 21.2989 126.953 20.3711Z" fill="white"/>
</g>
<defs>
<clipPath id="clip0_39611_341">
<rect width="134" height="73" fill="white"/>
</clipPath>
</defs>
</svg>
